# xmcd
#
# Track frame offsets:
# 150
# 20867
# 35307
# 47270
# 65392
# 84260
# 96922
# 115367
# 136622
# 149610
# 166410
# 183497
# 197852
# 211322
# 234882
# 252502
# 275465
#
# Disc length: 3867 seconds
#
#
# Revision: 0
# Processed by: cddbd v1.5.2PL0 Copyright (c) Steve Scherf et al.
# Submitted via: FreeRIP 2.945 
#
DISCID=ee0f1911
DTITLE=Carol Leigh - Go Back Where You Stayed Last Night
DYEAR=1996
DGENRE=Blues
TTITLE0=GO BACK WHERE YOU STAYED LAST NIGHT
TTITLE1=AFTER YOU'VE GONE
TTITLE2=SWEET MAN
TTITLE3=DOWN HEARTED BLUES
TTITLE4=I'M DOWN IN THE DUMPS
TTITLE5='TAIN'T NOBODY'S BIZNESS IF I DO
TTITLE6=BLAME IT ON THE BLUES
TTITLE7=KANSAS CITY MAN BLUES
TTITLE8=BRING ME FLOWERS
TTITLE9=SEE IF I'LL CARE
TTITLE10=LOST YOUR HEAD BLUES
TTITLE11=TURNKEY BLUES
TTITLE12=I'M A LITTLE BLACKBIRD (LOOKING FOR A BLUEBIRD)
TTITLE13=BEALE STREET MAMA
TTITLE14=THERE AIN'T NO SWEET WORTH THE SALT IN  MY TEARS
TTITLE15=BACK WATER BLUES
TTITLE16=I'M CRAZY 'BOUT MY BABY
EXTD=GHB Records BCD-136
EXTT0=
EXTT1=
EXTT2=
EXTT3=
EXTT4=
EXTT5=
EXTT6=
EXTT7=
EXTT8=
EXTT9=
EXTT10=
EXTT11=
EXTT12=
EXTT13=
EXTT14=
EXTT15=
EXTT16=
PLAYORDER=
